<?xml version="1.0" encoding="iso-8859-1"?>
<!-- Generator: Adobe Illustrator 18.0.0, SVG Export Plug-In . SVG Version: 6.00 Build 0)  -->
<!DOCTYPE svg PUBLIC "-//W3C//DTD SVG 1.1//EN" "http://www.w3.org/Graphics/SVG/1.1/DTD/svg11.dtd">
<svg xmlns="http://www.w3.org/2000/svg" xmlns:xlink="http://www.w3.org/1999/xlink" version="1.1" id="Capa_1" x="0px" y="0px" viewBox="0 0 303.155 303.155" style="enable-background:new 0 0 303.155 303.155;" xml:space="preserve" width="512px" height="512px">
<path d="M151.578,0C67.998,0,0.001,67.998,0.001,151.579c0,83.579,67.997,151.576,151.577,151.576  c83.579,0,151.576-67.997,151.576-151.576C303.154,67.998,235.157,0,151.578,0z M92.776,195.485H32.858  c-5.077-13.685-7.857-28.477-7.857-43.906c0-18.869,4.157-36.783,11.592-52.885L92.776,195.485z M210.379,107.67h59.917  c5.078,13.686,7.858,28.478,7.858,43.909c0,18.868-4.157,36.781-11.591,52.882L210.379,107.67z M255.078,78.796H142.504  l29.702-52.106C206.34,32.309,235.916,51.626,255.078,78.796z M139.61,25.57l-55.53,97.418L53.957,71.09  C74.803,45.852,105.229,28.81,139.61,25.57z M48.077,224.359h65.769c0.005,0,0.01,0.001,0.015,0.001c0.005,0,0.01-0.001,0.015-0.001  h46.776l-29.702,52.106C96.816,270.846,67.239,251.529,48.077,224.359z M163.546,277.586l55.53-97.418l30.122,51.898  C228.353,257.304,197.927,274.346,163.546,277.586z" fill="#c9c9c9"/>
<g>
</g>
<g>
</g>
<g>
</g>
<g>
</g>
<g>
</g>
<g>
</g>
<g>
</g>
<g>
</g>
<g>
</g>
<g>
</g>
<g>
</g>
<g>
</g>
<g>
</g>
<g>
</g>
<g>
</g>
</svg>
