<?xml version="1.0" encoding="iso-8859-1"?>
<svg xmlns="http://www.w3.org/2000/svg" xmlns:xlink="http://www.w3.org/1999/xlink" version="1.1" viewBox="0 0 20 20" enable-background="new 0 0 20 20" width="512px" height="512px">
  <g>
    <path d="m19,5h-1.93c-0.669,0-1.293-0.334-1.664-0.891l-.812-1.219c-0.371-0.556-0.996-0.89-1.664-0.89h-5.86c-0.668,0-1.293,0.334-1.664,0.891l-.812,1.218c-0.371,0.557-0.996,0.891-1.664,0.891h-1.93c-0.552,0-1,0.448-1,1v11c0,0.552 0.448,1 1,1h18c0.552,0 1-0.448 1-1v-11c0-0.552-0.448-1-1-1zm-9,12c-3.314,0-6-2.686-6-6s2.686-6 6-6 6,2.686 6,6-2.686,6-6,6zm4-6c0,2.209-1.791,4-4,4s-4-1.791-4-4c0-2.209 1.791-4 4-4s4,1.791 4,4z" fill="#c9c9c9"/>
  </g>
</svg>
