<?xml version="1.0" encoding="iso-8859-1"?>
<!-- Generator: Adobe Illustrator 16.0.0, SVG Export Plug-In . SVG Version: 6.00 Build 0)  -->
<!DOCTYPE svg PUBLIC "-//W3C//DTD SVG 1.1//EN" "http://www.w3.org/Graphics/SVG/1.1/DTD/svg11.dtd">
<svg version="1.1" id="Capa_1" xmlns="http://www.w3.org/2000/svg" xmlns:xlink="http://www.w3.org/1999/xlink" x="0px" y="0px"
	 width="136.06px" height="136.06px" viewBox="0 0 136.06 136.06" style="enable-background:new 0 0 136.06 136.06;"
	 xml:space="preserve">
<g>
	<g style="opacity:0.1;">
		<linearGradient id="SVGID_1_" gradientUnits="userSpaceOnUse" x1="200.6943" y1="50.4214" x2="200.6943" y2="50.4214">
			<stop  offset="0.2195" style="stop-color:#242423"/>
			<stop  offset="0.2792" style="stop-color:#4B4A4A"/>
			<stop  offset="0.43" style="stop-color:#898988"/>
			<stop  offset="0.5738" style="stop-color:#B6B6B6"/>
			<stop  offset="0.7065" style="stop-color:#D7D7D7"/>
			<stop  offset="0.8259" style="stop-color:#EDEDED"/>
			<stop  offset="0.9278" style="stop-color:#FAFAFA"/>
			<stop  offset="1" style="stop-color:#FFFFFF"/>
			<stop  offset="1" style="stop-color:#FEFEFE"/>
			<stop  offset="1" style="stop-color:#F9F9F9"/>
			<stop  offset="1" style="stop-color:#F0F0F0"/>
			<stop  offset="1" style="stop-color:#E4E4E4"/>
			<stop  offset="1" style="stop-color:#D4D4D3"/>
			<stop  offset="1" style="stop-color:#BFBEBE"/>
			<stop  offset="1" style="stop-color:#A4A4A4"/>
			<stop  offset="1" style="stop-color:#848483"/>
			<stop  offset="1" style="stop-color:#5B5B5A"/>
			<stop  offset="1" style="stop-color:#1F1F1E"/>
			<stop  offset="1" style="stop-color:#000000"/>
		</linearGradient>
		<path style="fill:url(#SVGID_1_);" d="M131.694,10.421L131.694,10.421z"/>
	</g>
	<g>
		<path style="opacity:0.8;fill:#e53935;" d="M54.633,47.272c0.455,0.477,1.019,0.787,1.595,0.958
			c0.574,0.168,1.164,0.235,1.732,0.168c-1.065-0.341-2.037-0.927-2.447-1.721c-0.426-0.768-0.289-1.675,0.032-2.555
			c0.328-0.888,0.845-1.753,1.413-2.596c0.574-0.841,1.209-1.67,1.878-2.481c0.695-0.864,1.36-1.777,1.929-2.751
			c0.56-0.985,1.055-2.027,1.289-3.205c0.113-0.586,0.166-1.205,0.055-1.833c-0.101-0.626-0.377-1.258-0.824-1.731
			c-0.45-0.471-1.016-0.786-1.59-0.956c-0.577-0.171-1.161-0.23-1.732-0.171c1.064,0.344,2.041,0.931,2.45,1.726
			c0.423,0.769,0.283,1.672-0.035,2.551c-0.33,0.89-0.838,1.757-1.411,2.598c-0.572,0.843-1.208,1.667-1.875,2.481
			c-2.569,3.194-3.018,4.629-1.928,2.752c-0.562,0.98-1.055,2.031-1.288,3.205c-0.116,0.585-0.168,1.208-0.059,1.831
			C53.922,46.168,54.194,46.795,54.633,47.272z"/>
		<path style="opacity:0.8;fill:#e53935;" d="M67.063,41.941c0.45,0.471,1.018,0.789,1.59,0.955
			c0.582,0.172,1.167,0.232,1.738,0.172c-1.068-0.343-2.042-0.931-2.446-1.721c-0.432-0.777-0.291-1.676,0.032-2.559
			c0.322-0.886,0.84-1.754,1.407-2.595c0.578-0.844,1.21-1.671,1.878-2.482c0.698-0.864,1.358-1.771,1.933-2.752
			c0.552-0.979,1.057-2.029,1.283-3.205c0.126-0.585,0.172-1.202,0.063-1.835c-0.105-0.619-0.385-1.253-0.826-1.73
			c-0.448-0.469-1.018-0.79-1.589-0.957c-0.576-0.169-1.172-0.23-1.735-0.169c1.063,0.344,2.034,0.933,2.443,1.725
			c0.426,0.776,0.287,1.673-0.032,2.557c-0.329,0.882-0.843,1.754-1.413,2.592c-0.568,0.846-1.205,1.67-1.87,2.484
			c-0.699,0.863-1.36,1.773-1.932,2.756c-0.554,0.972-1.05,2.022-1.286,3.203c-0.115,0.586-0.165,1.208-0.054,1.83
			C66.347,40.83,66.621,41.468,67.063,41.941z"/>
		<path style="opacity:0.8;fill:#e53935;" d="M78.328,47.414c0.448,0.477,1.011,0.786,1.59,0.956
			c0.578,0.169,1.168,0.235,1.729,0.169c-1.059-0.342-2.032-0.928-2.443-1.722c-0.427-0.768-0.285-1.676,0.027-2.554
			c0.332-0.889,0.85-1.753,1.419-2.596c0.574-0.842,1.206-1.671,1.876-2.481c0.697-0.865,1.359-1.777,1.924-2.753
			c0.564-0.984,1.063-2.026,1.295-3.204c0.117-0.587,0.172-1.205,0.059-1.833c-0.104-0.626-0.387-1.259-0.826-1.732
			c-0.452-0.471-1.014-0.786-1.592-0.956c-0.577-0.17-1.168-0.229-1.738-0.17c1.07,0.343,2.047,0.93,2.445,1.725
			c0.432,0.771,0.285,1.672-0.029,2.552c-0.328,0.889-0.842,1.757-1.411,2.598c-0.574,0.842-1.212,1.665-1.874,2.482
			c-0.703,0.865-1.367,1.77-1.923,2.751c-0.569,0.98-1.064,2.029-1.296,3.205c-0.114,0.584-0.168,1.208-0.051,1.831
			C77.609,46.309,77.878,46.936,78.328,47.414z"/>
		<path style="fill:#e53935;" d="M104.148,83.039h-4.711c0-0.377-0.006-0.749-0.018-1.121c-0.038-0.941-0.124-1.877-0.248-2.801
			c-0.18-1.313-0.453-2.603-0.806-3.854c-0.378-1.345-0.85-2.651-1.407-3.916c-0.458-1.021-0.973-2.02-1.543-2.985
			c-0.626-1.066-1.32-2.089-2.076-3.062c-0.713-0.929-1.481-1.815-2.299-2.651c-1.048-1.072-2.17-2.069-3.365-2.986
			c-0.905-0.7-1.859-1.352-2.846-1.952c-1.432-0.867-2.943-1.629-4.523-2.273c-1.24-0.502-2.517-0.936-3.83-1.282
			c-1.004-0.273-2.033-0.496-3.074-0.67c0.031-0.235,0.049-0.477,0.049-0.719c0-1.877-0.842-3.538-2.132-4.535
			c-0.806-0.632-1.79-0.998-2.844-0.998c-1.419,0-2.702,0.663-3.607,1.723c-0.849,0.985-1.37,2.33-1.37,3.81
			c0,0.187,0.012,0.372,0.025,0.558c-1.333,0.18-2.634,0.435-3.904,0.769c-1.32,0.341-2.609,0.762-3.849,1.258
			c-1.593,0.632-3.111,1.382-4.555,2.242c-0.998,0.602-1.964,1.246-2.882,1.946c-1.202,0.91-2.336,1.902-3.39,2.968
			c-0.83,0.842-1.605,1.729-2.33,2.658c-0.769,0.979-1.469,2.008-2.107,3.073c-0.583,0.966-1.103,1.97-1.568,3.004
			c-0.57,1.271-1.054,2.584-1.432,3.936c-0.365,1.264-0.638,2.559-0.824,3.884c-0.13,0.93-0.21,1.872-0.248,2.826
			c-0.019,0.384-0.025,0.768-0.025,1.151h-4.71c-1.53,0-2.776,0.589-2.776,1.32v0.242c0,0.73,1.246,1.325,2.776,1.325h30.87
			l0.019-0.769l0.012-0.694l0.006-0.271l0.031-1.184v-0.168l0.217-9.467c-0.192-0.056-0.378-0.124-0.552-0.21
			c-0.173-0.094-0.341-0.205-0.502-0.316c-1.153-0.873-1.797-2.484-1.797-4.344c0-1.171,0-2.149,0.019-2.968
			c0.049-2.701,0.26-3.648,1.183-3.978c0.112-0.037,0.236-0.068,0.366-0.093l0.037,1.964l0.081,4.678c0,0.272,0.161,0.65,0.458,0.65
			h0.155c0.18,0,0.304-0.111,0.378-0.254c0.049-0.093,0.074-0.204,0.074-0.304l0.471-6.821c0.198,0,0.409,0.006,0.638,0.006h0.372
			l0.471,6.723c0,0.272,0.155,0.65,0.453,0.65h0.161c0.292,0,0.453-0.347,0.453-0.607l0.118-6.709
			c0.13,0.019,0.254,0.037,0.366,0.074c1.382,0.347,1.463,1.716,1.463,6.988c0,0.88-0.143,1.704-0.422,2.417
			c-0.235,0.638-0.583,1.184-1.016,1.61c-0.186,0.18-0.378,0.341-0.595,0.478c-0.173,0.105-0.353,0.204-0.551,0.278l0.279,12.23
			l0.012,0.409h5.969v-4.82c0-0.223,0.024-0.365,0.086-0.446c0.075-0.105,0.205-0.124,0.409-0.124c0.112,0,0.236,0.006,0.354,0.013
			c0.155,0.013,0.315,0.025,0.483,0.025h0.155c0.161,0,0.329-0.013,0.483-0.025c0.123-0.007,0.242-0.013,0.354-0.013
			c0.173,0,0.284,0.013,0.365,0.087c0.019,0.007,0.031,0.019,0.043,0.037c0.006,0.006,0.014,0.019,0.014,0.025
			c0.049,0.086,0.073,0.216,0.073,0.421v4.82h29.935c1.537,0,2.782-0.595,2.782-1.325v-0.242
			C106.931,83.628,105.686,83.039,104.148,83.039z M74.66,79.143c0,0.378-0.08,0.731-0.223,1.028
			c-0.23-0.272-0.558-0.272-0.719-0.272c-0.125,0-0.248,0.006-0.385,0.019c-0.143,0.006-0.291,0.019-0.452,0.019h-0.155
			c-0.154,0-0.31-0.013-0.453-0.019c-0.136-0.013-0.266-0.019-0.384-0.019c-0.161,0-0.489,0-0.718,0.272
			c-0.144-0.297-0.225-0.65-0.225-1.028v-3.582c0-1.09,0.546-15.18,3.713-15.123V79.143z"/>
	</g>
</g>
</svg>
